<?xml version="1.0" encoding="utf-8"?>
<!-- Generator: Adobe Illustrator 22.1.0, SVG Export Plug-In . SVG Version: 6.00 Build 0)  -->
<svg version="1.1" id="Layer_1" xmlns="http://www.w3.org/2000/svg" xmlns:xlink="http://www.w3.org/1999/xlink" x="0px" y="0px"
	 viewBox="0 0 1920 1080" style="enable-background:new 0 0 1920 1080;" xml:space="preserve">
<style type="text/css">
	.st0{fill:#5A5A5A;}
	.st1{fill:#CC1C1C;}
</style>
<g>
	<g>
		<path class="st0" d="M861.6,631.5c4.8-58.6,41.2-87.2,113-87.2c38.6,0,68.1,9,88.2,26.4c18.5,16.4,25.4,37,25.4,74.5v117.3
			c0,27.5,1.1,31.2,9.5,43.8h-76.6c-3.2-9-3.2-10.6-5.8-20.1c-24.8,20.6-42.8,26.9-72.9,26.9c-56.5,0-94-31.7-94-79.8
			s30.1-72.9,101.4-84.5l40.7-6.9c16.9-2.6,22.7-6.9,22.7-17.4c0-14.3-14.8-23.2-39.1-23.2c-27.5,0-42.3,9.5-45.4,30.1H861.6z
			 M1015.4,684.8c-7.9,3.2-14.8,5.3-27.5,7.9l-26.9,5.8c-26.9,6.3-38.6,15.3-38.6,30.6c0,16.9,14.3,26.9,38,26.9
			c24.8,0,42.8-10.6,54.9-32.2V684.8z"/>
		<path class="st0" d="M1228.2,551.2l-2.1,45.4c14.8-41.2,33.8-52.8,88.2-52.3v70.8c-9-1.1-12.7-1.1-19-1.1
			c-25.9,0-47,11.6-55.5,30.6c-7.4,16.9-10,40.7-10,89.8v71.8h-75V551.2H1228.2z"/>
		<path class="st0" d="M1349.2,631.5c4.8-58.6,41.2-87.2,113-87.2c38.6,0,68.1,9,88.2,26.4c18.5,16.4,25.4,37,25.4,74.5v117.3
			c0,27.5,1.1,31.2,9.5,43.8h-76.6c-3.2-9-3.2-10.6-5.8-20.1c-24.8,20.6-42.8,26.9-72.9,26.9c-56.5,0-94-31.7-94-79.8
			s30.1-72.9,101.4-84.5l40.7-6.9c16.9-2.6,22.7-6.9,22.7-17.4c0-14.3-14.8-23.2-39.1-23.2c-27.5,0-42.3,9.5-45.4,30.1H1349.2z
			 M1502.9,684.8c-7.9,3.2-14.8,5.3-27.5,7.9l-26.9,5.8c-26.9,6.3-38.6,15.3-38.6,30.6c0,16.9,14.3,26.9,38,26.9
			c24.8,0,42.8-10.6,54.9-32.2V684.8z"/>
		<path class="st0" d="M1783.9,627.8c-3.2-19-18.5-29.1-43.3-29.1c-21.7,0-35.9,8.5-35.9,21.1c0,9.5,7.4,14.3,31.2,19.5l47,10
			c31.2,6.3,47,13.2,58.1,24.8c12.1,11.6,19,30.6,19,51.2c0,53.9-43.8,87.7-114.6,87.7c-70.8,0-114.6-33.3-118.9-89.8h70.3
			c4.2,24.3,20.1,35.4,50.2,35.4c23.8,0,39.1-9.5,39.1-24.8c0-12.1-8.5-18.5-28.5-23.2l-46.5-10.6c-56-12.1-77.7-32.8-77.7-73.4
			c0-51.2,40.7-82.4,108.8-82.4c65.5,0,105.1,29.6,112,83.5H1783.9z"/>
	</g>
	<path class="st1" d="M920.9,390.5c-3.8-1.2-14.2,4.2-21,6.9c-23.6,9.3-47.1,18.9-70.7,28.4c-8.6,3.4-17.5,6.1-25.7,10.4
		c-32.7,16.9-65.4,33.7-100.9,44.3c-12.2,3.7-25.1,7.6-34.1,18c-6.9,8-16,12.6-25.7,16.1c-10.5,3.8-20,8.9-27.2,17.6
		c-1.1,1.3-3,2-6.2,4.1c-4.3-12-8.5-23-12-34.2c-0.5-1.6,1.6-4.9,3.4-6.2c35.5-24.6,71.6-48.4,110.8-67
		c17.8-8.4,35.8-16.7,50.8-29.8c1.5-1.3,2.9-4.2,3.2-5.5c0.3-1.3-4.4-1.7-6.2-1.2c-7.4,1.7-15,3.1-21.9,6.2
		c-18,7.9-35.8,16.3-53.4,25.1c-22.9,11.5-45.6,23.5-68.3,35.4c-5.8,3.1-11.4,6.6-17,10c-3.1,1.9-6,3.9-9.6,6.3
		c-1.2-8.9-1.9-16.8-3.5-24.4c-1.2-5.5,0.7-8.2,5.4-10.7c19.5-10.3,39.8-19.6,58.1-31.8c34.6-22.9,71.1-42.2,108.1-60.6
		c6.9-3.4,18.2-9.2,20.3-11.7c2.2-2.5,0.6-7.4-2.8-7.8c-3.4-0.4-14.4,2.4-20.6,4.8c-19.6,7.8-39.3,15.2-58.4,24
		c-13.8,6.4-26.1,15.7-39.8,22.2c-24.9,11.8-50.1,23-72.2,39.9c-1,0.7-2.6,0.7-4.9,1.2c-3-19.2-5.4-38-9.1-56.5
		c-3.6-18.2-6.1-36.9-17.5-52.9c-3-4.3-3.9-10.5-4.5-16c-1.5-12.2-5.2-23.4-6.6-35.6c-1-8.9,0.8-12.3,1.5-16.6
		c2.7-16.8,4.3-14,8.6-30.5c1.9-7.3,7.1-14.4,1.9-23.2c-5.8,11.5-10.5,20.4-17.1,35.1c-1.1-7.6-1.4-43.9-1.6-50.6
		c-0.4-9.3-2.3-19.8,1-27.9c7.4-18.4,18-35.5,26.6-53.4c4.4-9.1,7.6-18.9,11-28.5c0.7-1.9,2.7-9.1-1-8.2
		c-3.7,1-44.9,78.3-68.5,117.8c-0.4-0.2-9.6,21.8-10.5,24.2c-11.2,31.8-23.1,58.3-33.5,90.4c-4.9,15.2-6.2,31.6-10.3,47.2
		c-6.9,25.9-15.1,51.4-22.1,77.3c-6.2,23-11.7,46.3-17.4,69.5c-4.4,18.2-8.5,36.5-12.9,54.7c-1.4,5.7-13,16.5-20.1,19.1
		c-0.2-0.6-0.7-1.3-0.6-1.8c6.4-29.4,13-58.8,19.4-88.2c4.5-21,12-41,19.3-61.1c10.8-29.9,18.3-61.1,28-91.4
		c7.1-22.2,15.4-44,23.3-65.9c6.7-18.5,13.7-36.8,20.7-55.2c1.2-3.2,11.1-26.4,12.8-30.4c13.3-30.1,29.9-58.9,34.7-92.2
		c0.6-4.1,1.2-9.5,0.4-11.5c-0.8-2-0.8-3-3-2.5c-2.2,0.5-8.8,4.9-10.7,8.7c-6.4,12.6-11.5,25.8-17.3,38.8
		c-11.2,25-23.1,49.7-33.4,75c-7.9,19.5-13.3,40-20.6,59.7c-7.3,19.7-15.5,39-23.4,58.5c-1.4,3.5-3.6,6.8-4.3,10.4
		c-2.6,13.4-4.6,27-7.1,40.4c-2.3,12.1-6,19.3-10.7,31.4c-2.7,7.1-3.8,10.6-4.2,14.3c-1.1,9.1-1.9,14.3-5.9,22.4
		c-7.6,15.3-14.6,30.8-21.4,46.5c-2.1,4.9-4.3,10.5-4,15.6c1.3,20.8-3.9,40.7-7.9,60.6c-1.7,8.5-20.7,43.8-25.9,48.9
		c-10,9.9-19.8,20-29.7,29.9c-11.3,11.3-23.4,21.9-33.5,34.1c-8,9.7-17.1,17.4-27.4,24.5c-7,4.8-12.7,11.8-18.2,18.4
		c-7.7,9.2-12.9,20.2-23.5,27.3c-7.6,5-14.2,12-20,19.1c-16.5,20.3-32.6,41-48.5,61.8c-11.3,14.9-22.8,29.8-32.7,45.6
		c-13.9,22.1-26.9,44.7-39.1,67.7c-3,5.6-3,13.8-1.6,20.3c1.1,4.9,12.1,8.1,18.2,7.4c7.4-0.8,12.9-3.1,17.6-9
		c8.7-10.9,17.6-21.6,27.1-31.8c8.9-9.6,19-17.9,27.8-27.6c9.9-10.9,17.7-24,28.7-33.7c22.3-19.7,45.5-38.5,69.3-56.4
		c19.4-14.6,38.6-20.8,54.6-39.9c0.3-0.4,4.7-4.3,6.4-4.6c-1.2,4.9-2.7,9.1-3.4,13.4c-3.7,23-5.7,46.2-10.6,69
		c-6.2,29.2-8.7,38.5-13.2,86.5c-2.5,27.2-3.1,55.3-2.7,82.7c0.1,5.9-2.4,17.4,0.4,18.4c2.8,1,19.6-3.7,21.5-4.4
		c1.9-0.6,5.7-4.1,5.6-8.4c-0.1-17.8-0.4-35.5,0-53.3c0.7-31,2.1-61,7.1-91.6c2.3-14.3,5.4-23.4,7-34.3c3.6-24.9,7.9-49.7,12-74.5
		c1-6.3,0.2-14.4,3.9-18.3c6.3-6.8,16.4-12.4,25.1-18.2c0.3,2.3-9.8,56.7-13.1,82.7c-2.6,20.2-3.1,40.7-4.5,61.1
		c-1.5,23.4-2.7,46.9-4.4,70.3c-1.5,20.8-4.3,41.6-5.2,62.4c-0.3,8,2.3,24.7,5.1,25.4c2.8,0.8,9.3-4.7,12.3-7.5
		c2.3-2.1,4.4-5.5,4.7-8.5c2.5-23.4,4.7-46.8,6.7-70.2c2.2-26.5,3.9-53.1,5.9-79.6c1.7-21.6,2.7-43.4,5.5-64.9
		c2.9-22.3,9.7-44.4,10.7-66.7c0.8-17.1,9.1-27.1,20.4-36.8c2.2-1.9,9.4-7.5,10-7.2c-1.1,7-3.2,17.5-4,24.5
		c-1.5,13.5-2.4,27.1-3.9,40.6c-4.4,38.4-9.8,76.8-13.2,115.3c-2.3,26.2-1.7,52.7-2.4,79.1c-0.6,25.9-2.5,49.1-3.3,74.9
		c-0.2,6-3.5,21.2-1.4,22.1c2.2,0.9,10.1-4.6,14.3-6.5c4.4-2,6.3-4.8,5.9-10c-0.4-6.8,0.3-13.7,1-20.6c1.6-17.2,3.8-34.3,4.9-51.6
		c1.1-17.6,0.8-35.2,1.9-52.8c1.4-22.1,3.6-44.1,5.5-66.1c2.2-25.7,4.2-51.2,11.6-76.4c5.6-19,7.1-39.3,9.9-59
		c1.4-10.1,1.3-20.4,2.4-30.5c0.3-2.5,1.6-6,3.5-7.2c16.7-10,33.4-20.2,50.7-28.9c11.9-6,12.4-5,15.2,7.5c0.1,0.5,0.3,0.9,0.4,1.4
		c6.7,24.4,13.4,48.8,20,73.2c6.9,25.6,15.1,51,19.9,77c6.5,34.8,18.8,67.5,31.1,100.3c10.5,28.2,21.9,56.1,32.7,84.2
		c2.1,5.4,3.4,13.4,5.4,13.8s8.6-5.1,7.7-11.6c-2.4-16.2-3.8-32.6-7.3-48.5c-3.6-15.9-9-31.5-14.2-47
		c-12.1-36.3-25.6-72.1-36.4-108.7c-10.3-35-17.4-71-27.1-106.2c-4.9-17.7-8.5-35.4-8.9-53.8c0-1.5,0.3-4,1.3-4.5
		c7.5-4.1,14.1-10.6,23.5-10.3c2.6,11.2,4.8,22,7.7,32.6c6.6,23.9,13.3,47.7,20.3,71.4c4.8,16.2,10.7,32.1,15.6,48.3
		c4.5,15.1,7.7,30.7,12.7,45.6c5.4,15.8,12.7,31,18.4,46.8c8,22,14.5,44.6,23.1,66.3c7.1,17.9,21.4,50,25.3,52.9
		c3.8,2.9,13.4-16,8.4-27.2c-1.7-3.7-2.8-7.5-4.1-11.3c-5.8-16.8-11.2-33.7-17.5-50.3c-7.7-20.4-17.5-40-24.1-60.7
		c-13.2-41.1-25-82.7-36.9-124.3c-7.6-26.4-14.2-53.1-21.6-79.6c-1.9-6.7-4.8-13.2-7.3-19.6c7.6-4.5,9.5-3.9,11.8,3.4
		c7.9,25.9,15.4,51.9,23.7,77.6c8,24.8,17.1,49.3,25.4,74c6.4,19.1,11.4,38.7,18.9,57.4c12.2,30.2,25.8,59.8,39,89.5
		c9.4,21.3,17.2,38.2,26.9,59.3c0.8,1.7,4,8.4,5.9,8.6c1.9,0.2,3.4-4.2,5.1-7.2c4.8-8.8,4.8-12.2,0.9-21.6
		c-11.2-27.2-20.6-55.1-32-82.2c-6.2-14.8-56-124.1-61.5-168.2c-1.5-11.9-2.7-25.2-8.8-34.9c-12.5-20.3-17.3-42.4-22.1-64.9
		c-0.9-4.4,0.3-6.9,4.5-9c13.3-6.9,26.4-14.2,39.5-21.4c42.3-23.1,84.2-47,127-69c37.1-19,75.4-35.7,113-53.8
		c6.8-3.3,12.7-8.3,18.8-12.8C921.5,396.5,924.7,391.7,920.9,390.5z M309.1,708.1c-28.5,21.5-57.2,42.7-84.6,65.5
		c-15,12.4-27.6,27.5-41.3,41.4c-1.8,1.9-4.4,4.7-5.8,4.7c-1.4,0-2.5-4.4-0.3-6.8c9.1-9.7,17.7-20,27.6-28.7
		c35.5-31.4,71.4-62.2,107.1-93.2c1.7-1.5,3.8-2.5,7.2-4.7C317,695.4,316.3,702.7,309.1,708.1z M320.6,654.2
		c-50.8,41.3-98.2,86.5-144.2,133.1c-4.5,4.6-8.7,9.4-13.2,14c-1,1-2.5,1.6-3.7,2.4c-0.9,0-2-0.8-2-1.7c0-0.9,10.5-15.2,16.9-21.7
		C209.1,745,243.9,709.8,279,675c11-10.9,23.4-20.2,34.8-30.6c5.9-5.4,11.1-11.5,17.4-18.1C333.7,639.2,329.5,647,320.6,654.2z
		 M351.8,679.4c-4.8-14.2,1.6-24.9,17.7-33.2C372,663.6,367.4,672.3,351.8,679.4z M361.4,626.9c-0.1-16.8,0.2-32.4,17-41
		C384.3,603.1,380.1,613.8,361.4,626.9z M529.1,279.7c6.3,25,22.7,115.1,29,140.2c1.5,6.1,1,10.8-7.9,12.1
		c-5.4-30.9-10.7-61.8-16.1-92.7c-0.9-4.9-8-53.6-7-53.9C527,280.9,528.5,277.6,529.1,279.7z M517.5,192.7c0,0,10.6,50.2,9.5,52.9
		c-1.3,3-4.4,14-6.2,13.1c-1.9-0.8-4.5-62.8-4.5-62.8L517.5,192.7z M482.6,269.8c5.9-15.7,12.5-31.2,18.8-46.8c0.4-1,2-9.1,2.6-9
		c1.2,8.8,3.5,23.9,4.5,32.7c1.1,10.3,2.7,20.7,2.5,31.1c-0.1,5.8-3.3,11.6-5.4,17.2c-4.8,12.8-9.9,25.5-15.5,39.9
		c-1.9-2-2.6-3.8-2.9-5.3c-2.7-14.4-5.7-28.8-7.5-43.4C479,281,480.7,275,482.6,269.8z M475,513.2c4.9-3.4,9.3-7.3,14-11
		c4.8-3.8,7.4-3.2,8.5,2.5c1.3,7,2,14.1,2.6,21.2c0.1,1.6-0.6,4.2-1.8,5c-11.9,8.1-24,15.9-36.1,23.7c-0.5,0.3-1.3,0.3-4,0.7
		C461.7,539.7,460.2,523.5,475,513.2z M470.4,492.2c3.9-22.6,11.1-61.6,11.2-64.8c0-3.1,0.3-5.3,1.2-5.4c2,6.7,5.6,18.6,7.5,25.3
		c0.6,2.3,0.9,4.7,1.2,7C494,474.4,490.8,480.4,470.4,492.2z M399.2,648.9c-2.6-25.9,5.3-37.9,24.6-45.9
		C426.6,621.7,418.5,637.1,399.2,648.9z M435.9,564.9c-0.4,1.5-1.2,3.2-2.4,4.1c-8,5.8-16.1,11.4-26,18.4c0.6-6.5,0.3-11.5,1.8-15.9
		c2.6-8.1,6.2-15.9,9.8-23.6c0.9-1.9,3.1-4,5.1-4.5c5.6-1.7,11.4-2.6,17.6-3.9C439.7,547.9,437.9,556.4,435.9,564.9z M447.8,502.3
		c-0.9,3.2-3.9,6.3-6.7,8.2c-5.4,3.7-11.4,6.5-17.9,10c4.3-23.2,7.8-45.5,12.6-67.5c4.9-22.1,11.4-43.9,16.8-65.9
		c5.4-21.9,14.6-63.7,15.4-66c0.8-2.3,0.7-4.9,1.4-4.7c2.4,17.5,8.5,39.7,2.6,57.8c-2.5,7.8-2.3,16.4-3.7,24.6
		c-3,17.9-7.8,35.8-8.9,53.8C458.4,470.1,452.5,486,447.8,502.3z M498.4,591.7c-13.7,8.9-27.1,18.4-40.7,27.6
		c-1.9,1.3-3.8,2.5-5.4,3.5c0-11.5-0.2-22.3,0.1-33c0.1-2.3,1.4-5.3,3.2-6.6c12.5-9.5,25.2-18.6,37.9-27.8c4.7-3.4,7.8-4,11.6,2.5
		C513.2,571.3,511.2,583.4,498.4,591.7z M509.7,462.6c-0.9-6.7-1.5-12.4-2.4-18.1c-3.8-23.4-7.1-46.9-11.8-70.1
		c-2.3-11.3,1.2-21.2,4.5-31.2c2.6-7.8,6.6-15.2,10.2-22.7c0.6-1.4,1.9-11.1,4.5-12.6c2.1,9.9,4,26.6,5.3,35.3
		c1.4,8.9,3.3,18,2.7,26.8c-1.3,20.4,4.3,39.5,9.4,58.7c3.9,14.7,4.3,14.7-7.6,23.3C520.1,455.4,515.5,458.5,509.7,462.6z
		 M542.5,464.9c2,9.5,4.1,18.9,6,28.2c0.2,0.8-0.2,2-0.8,2.6c-8.5,8.6-17.8,15.9-29.7,21.1C512.8,486.1,518.5,473.7,542.5,464.9z
		 M558.4,561c-9.7,4.2-19.7,7.8-30.1,11.8c-1.4-8.8-3.1-18.7-4.4-28.7c-0.2-1.2,1.3-3,2.5-3.8c8.4-5.6,17-11,26.4-17.1
		c1.2,2.5,3.1,5.4,4,8.6c2,7.5,3.8,15.1,5,22.8C562.1,556.7,560.2,560.2,558.4,561z M566.8,485.1c-0.7,0-6-3.5-6.4-5.7
		c-1.2-6.2-1.8-22.6-1.2-24c0.5-1.3,2.2-3.3,3.2-3.3c1,0,2.3,1.8,2.6,3c1.9,7.8,3.9,15.6,5.1,23.6
		C570.4,480.5,567.5,485.1,566.8,485.1z M582.5,545.5c-2.7,0-4.3-3.4-4.9-5.6c-2.7-10.6-4.9-21.2-7-31.9c-0.3-1.6,4.3-4.7,4.6-4
		c4.9,11.2,9.6,22.4,15.1,35.5C589.1,542.8,585.2,545.5,582.5,545.5z"/>
</g>
</svg>
